HIERARCHY
ROOT joint_0
{
	OFFSET 0.000000 0.000000 0.000000
	CHANNELS 6 Xposition Yposition Zposition Zrotation Yrotation Xrotation 
	JOINT joint_1
	{
		OFFSET 0.000000 0.000000 0.000000
		CHANNELS 3 Zrotation Yrotation Xrotation
		JOINT joint_2
		{
			OFFSET 3.811170 -8.520760 0.839290
			CHANNELS 3 Zrotation Yrotation Xrotation
			JOINT joint_3
			{
				OFFSET 2.562200 -7.039590 0.000000
				CHANNELS 3 Zrotation Yrotation Xrotation
				JOINT joint_4
				{
					OFFSET 0.157640 -0.433110 2.322550
					CHANNELS 3 Zrotation Yrotation Xrotation
					End Site
					{
						OFFSET 0.000000 0.000000 0.000000
					}
				}
			}
		}
	}
	JOINT joint_5
	{
		OFFSET 0.000000 0.000000 0.000000
		CHANNELS 3 Zrotation Yrotation Xrotation
		JOINT joint_6
		{
			OFFSET -3.848050 -8.780180 0.839290
			CHANNELS 3 Zrotation Yrotation Xrotation
			JOINT joint_7
			{
				OFFSET -2.568260 -7.056230 0.000000
				CHANNELS 3 Zrotation Yrotation Xrotation
				JOINT joint_8
				{
					OFFSET -0.164730 -0.452590 2.363150
					CHANNELS 3 Zrotation Yrotation Xrotation
					End Site
					{
						OFFSET 0.000000 0.000000 0.000000
					}
				}
			}
		}
	}
	JOINT joint_9
	{
		OFFSET 0.028270 2.035590 -0.193380
		CHANNELS 3 Zrotation Yrotation Xrotation
		JOINT joint_10
		{
			OFFSET 0.056720 2.048850 -0.042750
			CHANNELS 3 Zrotation Yrotation Xrotation
			JOINT joint_11
			{
				OFFSET -0.054170 1.746240 0.172020
				CHANNELS 3 Zrotation Yrotation Xrotation
				JOINT joint_12
				{
					OFFSET 0.104070 1.761360 -0.123970
					CHANNELS 3 Zrotation Yrotation Xrotation
					End Site
					{
						OFFSET 0.000000 0.000000 0.000000
					}
				}
			}
			JOINT joint_13
			{
				OFFSET 3.362410 1.200890 -0.311210
				CHANNELS 3 Zrotation Yrotation Xrotation
				JOINT joint_14
				{
					OFFSET 4.983000 -0.000000 -0.000000
					CHANNELS 3 Zrotation Yrotation Xrotation
					JOINT joint_15
					{
						OFFSET 3.483560 -0.000000 -0.000000
						CHANNELS 3 Zrotation Yrotation Xrotation
						JOINT joint_16
						{
							OFFSET 0.715260 -0.000000 -0.000000
							CHANNELS 3 Zrotation Yrotation Xrotation
							End Site
							{
								OFFSET 0.000000 0.000000 0.000000
							}
						}
					}
				}
			}
			JOINT joint_17
			{
				OFFSET -3.136600 1.374050 -0.404650
				CHANNELS 3 Zrotation Yrotation Xrotation
				JOINT joint_18
				{
					OFFSET -5.241900 -0.000000 -0.000000
					CHANNELS 3 Zrotation Yrotation Xrotation
					JOINT joint_19
					{
						OFFSET -3.444170 -0.000000 -0.000000
						CHANNELS 3 Zrotation Yrotation Xrotation
						JOINT joint_20
						{
							OFFSET -0.622530 -0.000000 -0.000000
							CHANNELS 3 Zrotation Yrotation Xrotation
							End Site
							{
								OFFSET 0.000000 0.000000 0.000000
							}
						}
					}
				}
			}
		}
	}
}
MOTION
Frames: 7
Frame Time: 0.031667
-2.459858 14.507683 5.742495 170.276443 -42.221558 178.379807 -42.472777 -24.329451 -27.135672 -34.097433 3.656442 0.912651 -8.465652 8.463838 -23.181403 0.019232 -1.710535 -4.984862 -13.103237 -6.885546 10.112107 49.160103 -4.382523 -6.385921 7.957514 -26.555494 -71.216378 -0.771409 5.383550 -14.907565 -2.255445 1.552781 -11.875191 -6.483207 -2.081020 1.801983 -6.520173 -3.240405 -0.567328 -5.774729 1.712130 8.748387 -57.264721 -18.383116 -3.516270 25.364021 -68.208197 -18.481383 1.678569 0.409055 -13.626893 -7.091732 -0.029951 0.202914 107.995879 25.560831 51.584202 -24.980766 53.564390 -17.729588 2.226476 -2.995136 -11.756856 7.024498 -0.081755 0.049135 
-2.618448 14.527208 5.658350 170.375656 -37.557163 178.634201 -40.963096 -21.550733 -29.992382 -32.520374 7.725384 4.321369 -4.743741 -0.060804 -18.932548 0.037241 -1.652181 -4.909046 -13.229903 -8.758617 7.567443 48.410848 -6.678703 -5.413189 10.125582 -23.009025 -74.683223 -0.460921 4.189282 -11.448950 -3.567808 3.297806 -10.197222 -7.533652 -2.610556 3.118021 -7.727069 -3.679945 -1.117886 -5.624671 1.712945 7.938383 -56.573742 -19.254231 -0.793452 25.403469 -72.041873 -20.034834 1.270119 0.537339 -12.303889 -7.063320 -0.005236 0.218522 110.004007 31.310953 51.733583 -23.354265 51.563477 -20.011032 2.894245 -2.665004 -10.714173 7.048070 -0.059074 0.077604 
-2.764054 14.545231 5.564871 170.413406 -32.941769 178.892181 -40.758790 -17.407614 -32.772503 -34.508313 9.525560 8.760326 -3.485850 -4.659303 -19.433248 0.043691 -1.812557 -5.302420 -13.862368 -10.450811 6.001790 49.089280 -7.519279 -2.820236 15.776530 -20.505736 -74.441582 -0.241042 2.814525 -7.862912 -4.497774 2.362844 -12.669492 -5.887985 -1.575906 4.075809 -5.627119 -3.892305 -2.643238 -5.122387 1.204198 7.694673 -58.369507 -18.668165 -0.608058 35.006343 -73.269456 -30.821938 0.605890 -0.455705 -7.851587 -7.064638 -0.011045 0.197061 108.970043 33.846735 53.104683 -19.487601 49.447445 -19.110805 1.386961 -0.808739 -11.797324 7.024794 -0.062009 0.066234 
-2.906213 14.562422 5.467940 170.488632 -28.315804 179.197021 -39.390995 -13.500911 -36.244979 -35.380428 10.321736 10.865750 0.268784 -11.715344 -21.863070 0.099309 -2.154279 -6.204260 -14.492566 -13.453814 4.821637 48.791027 -10.473811 -0.051238 12.149801 -19.507778 -71.730476 -0.164867 2.381319 -6.658294 -4.520143 2.870806 -8.894476 -6.075699 -1.531067 0.961505 -5.609478 -4.123942 -0.996741 -4.855945 0.881422 8.703530 -58.091918 -18.505015 -1.211428 43.248352 -74.236511 -39.366150 1.115882 -1.303368 -2.750691 -7.046756 0.014458 0.208362 108.654904 33.290236 51.329970 -14.913485 49.715036 -16.581650 1.992838 -0.231464 -12.019976 7.040511 -0.038341 0.087206 
-3.037075 14.576888 5.359700 170.548111 -23.823706 179.467407 -39.869443 -9.497976 -41.631766 -34.060350 14.323918 13.138509 0.691639 -12.124019 -20.752594 0.245626 -3.093845 -8.860606 -12.051339 -15.904455 2.070707 48.942039 -11.851175 3.566806 12.326497 -19.591075 -69.978506 -0.160793 2.560709 -7.051450 -4.230667 3.221898 -10.580987 -5.190456 -1.152925 1.117625 -5.951485 -5.297786 -3.535276 -4.136184 0.547997 9.115290 -58.676837 -19.145977 -2.012530 47.965911 -77.821355 -44.890334 1.048470 -0.955471 1.998659 -7.025430 0.040396 0.219141 106.420560 30.185921 49.981775 -12.517593 46.429884 -18.469621 2.531943 -0.393817 -8.553899 7.070119 -0.012523 0.112064 
-3.164959 14.590025 5.247998 170.648514 -19.354546 179.764572 -39.577926 -6.101733 -44.745719 -33.538544 15.073205 15.115991 2.286940 -9.848340 -23.314793 0.347376 -3.417895 -9.859903 -13.206527 -17.758578 1.187529 49.620209 -13.699301 3.978227 7.861525 -23.129805 -68.114629 -0.072386 2.255559 -5.954550 -5.819161 2.417018 -12.955411 -5.897859 -1.274786 -0.108701 -3.873553 -3.794595 -1.966279 -3.653966 0.567294 9.623904 -56.888551 -18.914445 -1.804150 55.576396 -77.503389 -53.646269 1.631061 -0.823985 2.240647 -6.990478 0.086936 0.251731 105.776754 30.206577 47.664329 -9.028024 46.554471 -17.308670 2.235108 -0.538433 -7.202895 7.120991 0.031110 0.163503 
-3.282469 14.598531 5.124234 170.778320 -15.053505 -179.976471 -36.497854 -4.344342 -45.849695 -31.131092 12.697625 14.721256 1.104977 -9.418852 -22.456614 0.535920 -4.345290 -12.520473 -12.487593 -18.789573 -3.119153 46.583068 -11.352918 2.549844 10.149728 -24.944711 -65.595461 -0.103718 2.595154 -6.768306 -4.909116 3.646183 -12.259735 -5.235850 -1.418315 -0.083208 -5.185992 -4.139759 -4.136832 -3.633480 0.370694 9.800060 -58.754388 -16.802766 0.603475 73.134832 -78.880236 -70.318167 0.846941 -1.297821 1.208919 -6.979416 0.089951 0.244877 103.341546 26.896499 45.965559 -9.520986 48.294168 -18.805504 2.572283 -0.771129 -6.434580 7.129017 0.034982 0.163648 
